<svg xmlns="http://www.w3.org/2000/svg" xmlns:xlink="http://www.w3.org/1999/xlink" viewBox="0 0 266.7 65.15"><defs><style>.cls-1{fill:url(#linear-gradient);}.cls-2{fill:url(#linear-gradient-2);}.cls-3{fill:url(#linear-gradient-3);}.cls-4{font-size:17px;fill:#3d3d42;font-family:TruenoRg, Trueno;}.cls-5{letter-spacing:-0.02em;}.cls-6{letter-spacing:-0.04em;}.cls-7{letter-spacing:-0.01em;}.cls-10,.cls-11,.cls-8,.cls-9{fill:#65686f;}.cls-8{letter-spacing:-0.05em;}.cls-10{letter-spacing:0.02em;}.cls-11{letter-spacing:0em;}.cls-12{letter-spacing:0em;}</style><linearGradient id="linear-gradient" x1="51.39" y1="33.46" x2="61.58" y2="33.46" gradientUnits="userSpaceOnUse"><stop offset="0" stop-color="#242f5e"/><stop offset="1" stop-color="#42a574"/></linearGradient><linearGradient id="linear-gradient-2" x1="0" y1="32.58" x2="61.58" y2="32.58" xlink:href="#linear-gradient"/><linearGradient id="linear-gradient-3" x1="3.9" y1="30.36" x2="8.96" y2="30.36" xlink:href="#linear-gradient"/></defs><title>logoSVG</title><g id="Layer_2" data-name="Layer 2"><g id="Layer_1-2" data-name="Layer 1"><path class="cls-1" d="M51.39,37.24H61.51a11.28,11.28,0,0,0,.07-1.16V29.69Z"/><path class="cls-2" d="M40.3,42.36,42,38.22l17.43-12.9h-11l.77-5.12H61.58V13a1.09,1.09,0,0,0-.93-1L31.09,0a1.52,1.52,0,0,0-.6,0L.93,12.06A1.07,1.07,0,0,0,0,13V30.31L5.63,20.2H12l5.16,22.16H10.51l-.65-3.54H1.42L.73,40.18c4.26,12.58,26.16,25,30.06,25,3.64,0,23.31-11,29.15-22.79Zm-8.11,0-1.1-14.19L25.48,42.36h-6.4L14.74,20.2h6.65l2.16,15.36,5.9-15.33,6.05,0,1.16,15.36,5.9-15.36H48.9L38.59,42.36Z"/><polygon class="cls-3" points="3.9 34.01 8.96 34.01 7.62 26.71 3.9 34.01"/><text class="cls-4" transform="translate(68.23 37.67)"><tspan class="cls-5">A</tspan><tspan x="12.21" y="0">U</tspan><tspan class="cls-6" x="25.19" y="0">T</tspan><tspan class="cls-7" x="34.32" y="0">O</tspan><tspan class="cls-8" x="47.92" y="0">W</tspan><tspan class="cls-9" x="64.7" y="0">ARRAN</tspan><tspan class="cls-10" x="127.84" y="0">T</tspan><tspan class="cls-11" x="137.94" y="0">Y</tspan><tspan class="cls-12" x="148.77" y="0">ZONE</tspan></text></g></g></svg>