<svg xmlns="http://www.w3.org/2000/svg" xmlns:xlink="http://www.w3.org/1999/xlink" viewBox="0 0 265.81 65.15"><defs><style>.cls-1{fill:url(#linear-gradient);}.cls-2{fill:url(#linear-gradient-2);}.cls-3{fill:url(#linear-gradient-3);}.cls-4{fill:#3d3d42;}.cls-5{fill:#65686f;}</style><linearGradient id="linear-gradient" x1="51.39" y1="33.46" x2="61.58" y2="33.46" gradientUnits="userSpaceOnUse"><stop offset="0" stop-color="#242f5e"/><stop offset="1" stop-color="#42a574"/></linearGradient><linearGradient id="linear-gradient-2" x1="0" y1="32.58" x2="61.58" y2="32.58" xlink:href="#linear-gradient"/><linearGradient id="linear-gradient-3" x1="3.9" y1="30.36" x2="8.96" y2="30.36" xlink:href="#linear-gradient"/></defs><title>logoNew</title><g id="Layer_2" data-name="Layer 2"><g id="Layer_1-2" data-name="Layer 1"><path class="cls-1" d="M51.39,37.24H61.51a11.28,11.28,0,0,0,.07-1.16V29.69Z"/><path class="cls-2" d="M40.3,42.36,42,38.22l17.43-12.9h-11l.77-5.12H61.58V13a1.09,1.09,0,0,0-.93-1L31.09,0a1.52,1.52,0,0,0-.6,0L.93,12.06A1.07,1.07,0,0,0,0,13V30.31L5.63,20.2H12l5.16,22.16H10.51l-.65-3.54H1.42L.73,40.18c4.26,12.58,26.16,25,30.06,25,3.64,0,23.31-11,29.15-22.79Zm-8.11,0-1.1-14.19L25.48,42.36h-6.4L14.74,20.2h6.65l2.16,15.36,5.9-15.33,6.05,0,1.16,15.36,5.9-15.36H48.9L38.59,42.36Z"/><polygon class="cls-3" points="3.9 34.01 8.96 34.01 7.62 26.71 3.9 34.01"/><path class="cls-4" d="M71.47,35l-1.14,2.69H68.24l5.26-11.9h2l5.2,11.9H78.61L77.47,35Zm3-7.07L72.22,33.2h4.49Z"/><path class="cls-4" d="M92.11,32.74c0,3.11-2,5-5.17,5s-5.18-1.9-5.18-5v-7h2v7A3,3,0,0,0,87,36a2.93,2.93,0,0,0,3.14-3.21v-7h2Z"/><path class="cls-4" d="M99.34,27.57v10.1h-2V27.57H93.57v-1.8h9.54v1.8Z"/><path class="cls-4" d="M115.74,31.72a6.31,6.31,0,1,1-6.31-6A6.08,6.08,0,0,1,115.74,31.72Zm-10.57,0A4.26,4.26,0,0,0,109.45,36a4.22,4.22,0,1,0-4.28-4.23Z"/><path class="cls-5" d="M127.89,37.67l-2.82-9.28-2.85,9.28h-2.08l-3.94-11.9h2.16l2.89,9.67,2.87-9.65,2,0L129,35.44l2.88-9.67h2.07l-4,11.9Z"/><path class="cls-5" d="M136.17,35,135,37.67h-2.1l5.26-11.9h2.05l5.21,11.9h-2.15L142.17,35Zm3-7.07-2.25,5.29h4.49Z"/><path class="cls-5" d="M152.41,34.06a4.87,4.87,0,0,1-.55,0H149v3.59h-2V25.77h4.82c3,0,4.8,1.48,4.8,4.06a3.83,3.83,0,0,1-2.47,3.86l2.67,4h-2.28Zm-.55-1.78c1.84,0,2.89-.78,2.89-2.4s-1.05-2.31-2.89-2.31H149v4.71Z"/><path class="cls-5" d="M164.7,34.06a4.78,4.78,0,0,1-.54,0h-2.83v3.59h-2V25.77h4.83c3,0,4.79,1.48,4.79,4.06a3.82,3.82,0,0,1-2.47,3.86l2.67,4h-2.27Zm-.54-1.78c1.83,0,2.89-.78,2.89-2.4s-1.06-2.31-2.89-2.31h-2.83v4.71Z"/><path class="cls-5" d="M173.3,35l-1.14,2.69h-2.09l5.25-11.9h2.06l5.2,11.9h-2.14L179.3,35Zm3-7.07-2.24,5.29h4.49Z"/><path class="cls-5" d="M192.51,37.67l-6.34-8.54v8.54h-2V25.77h2l6.37,8.55V25.77h2v11.9Z"/><path class="cls-5" d="M202,27.57v10.1h-2V27.57h-3.76v-1.8h9.54v1.8Z"/><path class="cls-5" d="M212.61,37.67h-2v-3.9l-4.44-8h2l3.4,5.79,3.34-5.79h2l-4.36,7.94Z"/><path class="cls-4" d="M220.34,35.87h7.33v1.8h-10V36.22l7.26-8.65h-7v-1.8h9.74v1.44Z"/><path class="cls-4" d="M241.5,31.72a6.31,6.31,0,1,1-6.3-6A6.08,6.08,0,0,1,241.5,31.72Zm-10.57,0A4.27,4.27,0,0,0,235.22,36a4.22,4.22,0,1,0-4.29-4.23Z"/><path class="cls-4" d="M252,37.67l-6.34-8.54v8.54h-2V25.77h2L252,34.32V25.77h2v11.9Z"/><path class="cls-4" d="M259.12,27.57v3.21h5.81v1.8h-5.81v3.29h6.69v1.8h-8.7V25.77h8.5v1.8Z"/></g></g></svg>