<svg xmlns="http://www.w3.org/2000/svg" width="46" height="47" viewBox="0 0 46 47">
    <defs>
        <style>
            .cls-1{fill:#f2c7aa}.cls-2{fill:#4da34d}.cls-3{fill:#9edb9e}.cls-4{opacity:.1}
        </style>
    </defs>
    <g id="payment-3" transform="translate(-1)">
        <path id="Path_91" d="M31.809 29.411a.989.989 0 0 0-.856-.41l-21 1A1 1 0 0 0 9 31a16.018 16.018 0 0 0 16 16 1 1 0 0 0 .937-.649l6-16a1 1 0 0 0-.128-.94z" class="cls-1" data-name="Path 91"/>
        <path id="Path_92" d="M8 10V6a3 3 0 0 1 3-3 3 3 0 0 1 3 3v4" class="cls-1" data-name="Path 92"/>
        <path id="Path_93" d="M16 10V5a3 3 0 0 1 3-3 3 3 0 0 1 3 3v5" class="cls-1" data-name="Path 93"/>
        <path id="Path_94" d="M32 10V5a3 3 0 0 1 3-3 3 3 0 0 1 3 3v5" class="cls-1" data-name="Path 94"/>
        <path id="Path_95" d="M24 10V3a3 3 0 0 1 3-3 3 3 0 0 1 3 3v7" class="cls-1" data-name="Path 95"/>
        <path id="Path_96" d="M46 34H2a1 1 0 0 1-1-1V9a1 1 0 0 1 1-1h44a1 1 0 0 1 1 1v24a1 1 0 0 1-1 1z" class="cls-2" data-name="Path 96"/>
        <path id="Path_97" d="M38 11H10a6 6 0 0 1-6 6v8a6 6 0 0 1 6 6h28a6 6 0 0 1 6-6v-8a6 6 0 0 1-6-6z" class="cls-3" data-name="Path 97"/>
        <circle id="Ellipse_14" cx="5" cy="5" r="5" class="cls-2" data-name="Ellipse 14" transform="translate(19 16)"/>
        <path id="Path_98" d="M33 23.951V30a11.233 11.233 0 0 0-8.441 4h14.149A15.989 15.989 0 0 0 39 31V17.062c-4.477-.549-6 2.571-6 6.889z" class="cls-4" data-name="Path 98"/>
        <path id="Path_99" d="M41 17.062c-4.477-.549-6 2.571-6 6.889V30a11.09 11.09 0 0 0-11 11v4.981A1.008 1.008 0 0 0 24.987 47 16.018 16.018 0 0 0 41 31z" class="cls-1" data-name="Path 99"/>
    </g>
</svg>
