<svg xmlns="http://www.w3.org/2000/svg" width="41.07" height="41.072" viewBox="0 0 41.07 41.072">
    <defs>
        <style>
            .cls-1{fill:none;stroke:#65666d;stroke-linecap:square;stroke-miterlimit:10;stroke-width:2px}
        </style>
    </defs>
    <g id="phoneIcon" transform="translate(-.979 -.948)">
        <path id="Path_3" d="M18 2a16.714 16.714 0 0 1 16.714 16.714" class="cls-1" data-name="Path 3" transform="translate(6.285)"/>
        <path id="Path_4" d="M26.357 16.357A8.357 8.357 0 0 0 18 8" class="cls-1" data-name="Path 4" transform="translate(6.285 2.357)"/>
        <path id="Path_5" d="M28.036 26.086l-3.178 3.974a33.535 33.535 0 0 1-11.919-11.919l3.974-3.178a2.7 2.7 0 0 0 .78-3.2L14.072 3.6a2.7 2.7 0 0 0-3.148-1.518L4.03 3.875a2.716 2.716 0 0 0-2 3 40.058 40.058 0 0 0 34.1 34.1 2.716 2.716 0 0 0 3-2l1.788-6.894a2.7 2.7 0 0 0-1.517-3.145l-8.155-3.621a2.7 2.7 0 0 0-3.2.777z" class="cls-1" data-name="Path 5"/>
    </g>
</svg>
