<svg xmlns="http://www.w3.org/2000/svg" id="settings-2" width="44.943" height="45.071" viewBox="0 0 44.943 45.071">
    <defs>
        <style>
            .cls-1{fill:#8e8e8e}.cls-2{fill:#e86c60}.cls-3{fill:#c9514b}.cls-4{fill:#c9cdd4}
        </style>
    </defs>
    <path id="Path_111" d="M21 18.7l-6.43-6.43.865-2.6a1 1 0 0 0-.241-1.023L9.538 2.994a1 1 0 0 0-1.414 0L2.467 8.65a1 1 0 0 0 0 1.414l5.657 5.657a1 1 0 0 0 .707.293.985.985 0 0 0 .316-.052l2.595-.865 6.429 6.429A2 2 0 0 0 21 18.7z" class="cls-1" data-name="Path 111" transform="translate(-1.491 -.965)"/>
    <path id="Path_112" d="M20.736 31.264l12.7 12.7a7.071 7.071 0 0 0 10 0 7.071 7.071 0 0 0 0-10l-12.7-12.7z" class="cls-2" data-name="Path 112" transform="translate(-1.491 -.965)"/>
    <path id="Path_113" d="M39.32 40.847a1 1 0 0 1-.707-.293L30.154 32.1a1 1 0 0 1 1.414-1.414l8.459 8.458a1 1 0 0 1-.707 1.707z" class="cls-3" data-name="Path 113" transform="translate(-1.491 -.965)"/>
    <path id="Path_114" d="M45.851 9.266a1 1 0 0 0-1.658-.4l-5.24 5.239-5.658-5.656 5.24-5.239a1 1 0 0 0-.4-1.658A11.945 11.945 0 0 0 33.4 1.01a12.186 12.186 0 0 0-10.961 12.158 11.987 11.987 0 0 0 .386 2.817L4.076 32.535A7.644 7.644 0 0 0 9.127 45.91h.247a7.574 7.574 0 0 0 5.493-2.581l16.549-18.752a12 12 0 0 0 14.553-8.265 12.127 12.127 0 0 0-.118-7.046zM10 39a2 2 0 1 1 2-2 2 2 0 0 1-2 2z" class="cls-4" data-name="Path 114" transform="translate(-1.491 -.965)"/>
</svg>
